<svg xmlns="http://www.w3.org/2000/svg" width="8.621" height="5.092" viewBox="0 0 8.621 5.092">
  <g id="down-arrow" transform="translate(0 -100.698)">
    <g id="Group_259" data-name="Group 259" transform="translate(0 100.698)">
      <path id="Path_4132" data-name="Path 4132" d="M8.483,101.124l-.282-.284a.473.473,0,0,0-.667,0l-3.221,3.221-3.225-3.225a.473.473,0,0,0-.667,0l-.282.283a.472.472,0,0,0,0,.667l3.84,3.854a.482.482,0,0,0,.334.151h0a.482.482,0,0,0,.333-.151L8.483,101.8a.479.479,0,0,0,0-.672Z" transform="translate(0 -100.698)" fill="#010326"/>
    </g>
  </g>
</svg>
