<svg xmlns="http://www.w3.org/2000/svg" width="60" height="60" viewBox="0 0 60 60">
  <path id="Creative_Agency_Arolax_is_a_versatile_responsive_RTL_ready_Woo-Commerce_ready_and_easily_customizable_digital_creative_agency_portfolio_WordPress_theme.-5" data-name="Creative Agency – Arolax is a versatile, responsive, RTL ready, Woo-Commerce ready and easily customizable digital creative agency &amp; portfolio WordPress theme.-5" d="M31.916,2.939a2.654,2.654,0,0,0-2.369,0L11.241,12.181a2.124,2.124,0,0,0,0,3.875L29.547,25.3a2.655,2.655,0,0,0,2.369,0l18.306-9.242a2.124,2.124,0,0,0,0-3.875ZM28.126.614a5.84,5.84,0,0,1,5.212,0L51.643,9.856a4.672,4.672,0,0,1,0,8.525L33.338,27.624a5.84,5.84,0,0,1-5.212,0L9.82,18.381a4.672,4.672,0,0,1,0-8.525ZM6.507,24.256a2.442,2.442,0,0,0-3.58,1.959V46.6a2.194,2.194,0,0,0,1.265,1.943L21.265,57.06a2.444,2.444,0,0,0,3.613-1.943V34.43a2.2,2.2,0,0,0-1.3-1.959ZM0,26.215c0-3.675,4.3-6.029,7.876-4.31L24.95,30.12A4.837,4.837,0,0,1,27.8,34.43V55.117c0,3.707-4.372,6.059-7.948,4.275L2.783,50.873A4.828,4.828,0,0,1,0,46.6Zm57.073,0a2.442,2.442,0,0,0-3.58-1.959L36.42,32.471a2.2,2.2,0,0,0-1.3,1.959V55.117a2.444,2.444,0,0,0,3.613,1.943l17.073-8.519A2.194,2.194,0,0,0,57.073,46.6Zm-4.95-4.31C55.7,20.186,60,22.541,60,26.215V46.6a4.828,4.828,0,0,1-2.784,4.275L40.143,59.391c-3.576,1.784-7.948-.567-7.948-4.275V34.43a4.837,4.837,0,0,1,2.855-4.31Z" fill-rule="evenodd"/>
</svg>
