<svg xmlns="http://www.w3.org/2000/svg" xmlns:xlink="http://www.w3.org/1999/xlink" width="170" height="42" viewBox="0 0 170 42">
  <defs>
    <clipPath id="clip-path">
      <rect id="Rectangle_997" data-name="Rectangle 997" width="170" height="42" fill="#fff"/>
    </clipPath>
  </defs>
  <g id="_6619409c1ff2720923a25f57_clutch-reviews" data-name="6619409c1ff2720923a25f57_clutch-reviews" clip-path="url(#clip-path)">
    <path id="Path_3919" data-name="Path 3919" d="M21.657,15.682H18.047V37.644h3.611Z" transform="translate(3.609 3.136)" fill="#eff4f5"/>
    <path id="Path_3920" data-name="Path 3920" d="M32.769,29.182a3.721,3.721,0,0,1-1.014,2.795A3.3,3.3,0,0,1,29.093,33c-2.115,0-2.469-2.048-2.469-3.3V20.766H23.07v8.908a7.5,7.5,0,0,0,1.8,5.244A5.722,5.722,0,0,0,29.06,36.58a5.856,5.856,0,0,0,3.709-1.241v1.288H36.3V20.766H32.769Z" transform="translate(4.612 4.153)" fill="#eff4f5"/>
    <path id="Path_3921" data-name="Path 3921" d="M42.008,16.7H38.636v5.412H36.109v3.612h2.526V37.44h3.372V25.722h2.526V22.111H42.008Z" transform="translate(7.222 3.34)" fill="#eff4f5"/>
    <path id="Path_3922" data-name="Path 3922" d="M54.466,31.975a4.092,4.092,0,0,1-2.841,1.154,3.952,3.952,0,0,1-3.008-1.27,4.46,4.46,0,0,1-1.182-3.2,4.35,4.35,0,0,1,1.183-3.169,3.848,3.848,0,0,1,3.008-1.2,4.207,4.207,0,0,1,2.862,1.1l.522.485,2.34-2.481-.588-.554a7.378,7.378,0,0,0-5.137-2.065,7,7,0,0,0-5.36,2.215,7.9,7.9,0,0,0-2.129,5.666,8.043,8.043,0,0,0,2.139,5.682,7.136,7.136,0,0,0,5.35,2.292,7.377,7.377,0,0,0,5.181-2.077l.566-.565-2.406-2.516Z" transform="translate(8.827 4.153)" fill="#eff4f5"/>
    <path id="Path_3923" data-name="Path 3923" d="M66.634,24.006a5.294,5.294,0,0,0-7.077-.4V15.682H56.164V37.644h3.393V29.408c0-3.308,2.337-3.627,3.156-3.627,2.058,0,1.993,1.973,1.993,3.153v8.71h3.468V28.956A6.861,6.861,0,0,0,66.634,24.006Z" transform="translate(11.233 3.136)" fill="#eff4f5"/>
    <path id="Path_3924" data-name="Path 3924" d="M50.845,30.221a2.44,2.44,0,1,0-2.407-2.44A2.424,2.424,0,0,0,50.845,30.221Z" transform="translate(9.687 5.068)" fill="#ef4335"/>
    <path id="Path_3925" data-name="Path 3925" d="M16.174,33.022a7.622,7.622,0,0,1-5.4,2.166A7.137,7.137,0,0,1,3.529,27.7c0-4.345,3.035-7.521,7.211-7.521a7.671,7.671,0,0,1,5.376,2.155l.576.556,2.541-2.45-.553-.556a11.084,11.084,0,0,0-7.9-3.187A10.685,10.685,0,0,0,0,27.725,10.638,10.638,0,0,0,10.775,38.66a11.156,11.156,0,0,0,7.928-3.2l.553-.545-2.494-2.462Z" transform="translate(0 3.34)" fill="#eff4f5"/>
    <path id="Path_3926" data-name="Path 3926" d="M85.117,10.946l-3.612,2.2a.575.575,0,0,1-.861-.633L81.57,8.4l-3.176-2.79a.586.586,0,0,1,.333-1.023l4.187-.354L84.589.361a.573.573,0,0,1,1.065,0L87.3,4.24l4.186.353a.587.587,0,0,1,.324,1.023l-3.168,2.79.927,4.111a.584.584,0,0,1-.871.633Z" transform="translate(15.639)" fill="#ee4234"/>
    <path id="Path_3927" data-name="Path 3927" d="M98.07,10.946l-3.612,2.2a.572.572,0,0,1-.644-.023.578.578,0,0,1-.217-.61L94.523,8.4l-3.177-2.79a.587.587,0,0,1,.333-1.023l4.186-.354L97.542.361a.573.573,0,0,1,1.065,0l1.649,3.879,4.186.353a.585.585,0,0,1,.5.405.591.591,0,0,1-.17.618L101.6,8.407l.925,4.111a.583.583,0,0,1-.87.633Z" transform="translate(18.23)" fill="#ee4234"/>
    <path id="Path_3928" data-name="Path 3928" d="M111.5,10.946l-3.614,2.2a.569.569,0,0,1-.642-.023.577.577,0,0,1-.218-.61l.926-4.111-3.176-2.79a.586.586,0,0,1,.334-1.023L109.3,4.23,110.972.361a.574.574,0,0,1,1.066,0l1.649,3.879,4.187.353a.586.586,0,0,1,.323,1.023l-3.168,2.79.928,4.111a.589.589,0,0,1-.227.606.582.582,0,0,1-.644.027Z" transform="translate(20.916)" fill="#ee4234"/>
    <path id="Path_3929" data-name="Path 3929" d="M124.454,10.946l-3.612,2.2a.575.575,0,0,1-.862-.633l.925-4.111-3.176-2.79a.587.587,0,0,1,.334-1.023l4.187-.354L123.925.361A.579.579,0,0,1,124.459,0a.572.572,0,0,1,.532.361l1.649,3.879,4.187.353a.587.587,0,0,1,.324,1.023l-3.168,2.79.926,4.111a.584.584,0,0,1-.871.633Z" transform="translate(23.506)" fill="#ee4234"/>
    <path id="Path_3930" data-name="Path 3930" d="M137.407,10.946l-3.612,2.2a.575.575,0,0,1-.862-.633l.925-4.111-3.176-2.79a.586.586,0,0,1,.334-1.023L135.2,4.23,136.878.361a.574.574,0,0,1,1.066,0l1.649,3.879,4.187.353a.587.587,0,0,1,.324,1.023l-3.167,2.79.925,4.111a.588.588,0,0,1-.226.606.582.582,0,0,1-.644.027Z" transform="translate(26.097)" fill="#ee4234"/>
    <path id="Path_3931" data-name="Path 3931" d="M78.2,35.518V34.48l3.324-3.329q.532-.542.877-.95a3.556,3.556,0,0,0,.523-.784,1.843,1.843,0,0,0,.172-.788,1.428,1.428,0,0,0-.23-.816,1.486,1.486,0,0,0-.628-.533,2.053,2.053,0,0,0-.9-.19,1.94,1.94,0,0,0-.921.209,1.459,1.459,0,0,0-.6.589,1.807,1.807,0,0,0-.211.89H78.2a2.7,2.7,0,0,1,1.544-2.522,3.891,3.891,0,0,1,3.266,0,2.744,2.744,0,0,1,1.108.964,2.446,2.446,0,0,1,.4,1.372,2.705,2.705,0,0,1-.206,1.034,4.527,4.527,0,0,1-.7,1.127,19.592,19.592,0,0,1-1.4,1.5L80.248,34.22v.07h4.422v1.228Z" transform="translate(15.639 5.179)" fill="#eff4f5"/>
    <path id="Path_3932" data-name="Path 3932" d="M88.863,26V35.5H87.376V27.44h-.058l-2.35,1.484V27.551L87.42,26Z" transform="translate(16.994 5.2)" fill="#eff4f5"/>
    <path id="Path_3933" data-name="Path 3933" d="M93.516,35.5V26h3.5a4.191,4.191,0,0,1,1.9.38,2.568,2.568,0,0,1,1.131,1.052,3.1,3.1,0,0,1,.374,1.544,3.036,3.036,0,0,1-.379,1.535,2.518,2.518,0,0,1-1.132,1.024,4.322,4.322,0,0,1-1.894.366H94.36V30.671h2.518a2.923,2.923,0,0,0,1.171-.2,1.348,1.348,0,0,0,.666-.58,1.85,1.85,0,0,0,.211-.913,1.912,1.912,0,0,0-.216-.932,1.373,1.373,0,0,0-.667-.6,2.792,2.792,0,0,0-1.185-.213H95V35.5Zm4.849-4.284,2.427,4.284H99.1l-2.379-4.284Z" transform="translate(18.703 5.2)" fill="#eff4f5"/>
    <path id="Path_3934" data-name="Path 3934" d="M100.773,35.5V26h6.158v1.233h-4.676v2.893h4.355v1.229h-4.355v2.907h4.735V35.5Z" transform="translate(20.155 5.2)" fill="#eff4f5"/>
    <path id="Path_3935" data-name="Path 3935" d="M108.539,26l2.735,7.733h.109L114.118,26h1.6L112.184,35.5h-1.712L106.938,26Z" transform="translate(21.388 5.2)" fill="#eff4f5"/>
    <path id="Path_3936" data-name="Path 3936" d="M116.919,26V35.5h-1.481V26Z" transform="translate(23.088 5.2)" fill="#eff4f5"/>
    <path id="Path_3937" data-name="Path 3937" d="M118.469,35.5V26h6.158v1.233h-4.676v2.893h4.355v1.229h-4.355v2.907h4.734V35.5Z" transform="translate(23.694 5.2)" fill="#eff4f5"/>
    <path id="Path_3938" data-name="Path 3938" d="M127.3,35.5,124.578,26h1.559l1.914,7.353h.091L130.133,26h1.544l1.991,7.358h.091L135.668,26h1.564L134.5,35.5H133.01l-2.066-7.112h-.077L128.8,35.5Z" transform="translate(24.916 5.2)" fill="#eff4f5"/>
    <path id="Path_3939" data-name="Path 3939" d="M141.653,28.518a1.35,1.35,0,0,0-.634-1.02,2.5,2.5,0,0,0-1.4-.366,2.689,2.689,0,0,0-1.046.186,1.6,1.6,0,0,0-.685.5,1.158,1.158,0,0,0-.24.719,1.028,1.028,0,0,0,.163.584,1.427,1.427,0,0,0,.437.413,3.366,3.366,0,0,0,.584.274c.209.071.408.13.6.176l.959.241a7.583,7.583,0,0,1,.965.3,3.906,3.906,0,0,1,.916.5,2.419,2.419,0,0,1,.682.77,2.163,2.163,0,0,1,.264,1.1,2.469,2.469,0,0,1-.432,1.432,2.863,2.863,0,0,1-1.242.988,4.8,4.8,0,0,1-1.962.362,4.913,4.913,0,0,1-1.909-.338,2.928,2.928,0,0,1-1.261-.96,2.725,2.725,0,0,1-.5-1.483h1.487a1.44,1.44,0,0,0,.346.858,1.867,1.867,0,0,0,.782.505,3.254,3.254,0,0,0,1.05.162,3.069,3.069,0,0,0,1.117-.19,1.862,1.862,0,0,0,.776-.538,1.243,1.243,0,0,0,.284-.811.979.979,0,0,0-.25-.691,1.843,1.843,0,0,0-.667-.445,6.676,6.676,0,0,0-.944-.311l-1.162-.306a4.569,4.569,0,0,1-1.87-.913,2.02,2.02,0,0,1-.686-1.595,2.315,2.315,0,0,1,.461-1.433,3,3,0,0,1,1.247-.95,4.4,4.4,0,0,1,1.775-.343,4.306,4.306,0,0,1,1.76.338,2.952,2.952,0,0,1,1.208.932,2.3,2.3,0,0,1,.461,1.354Z" transform="translate(27.181 5.179)" fill="#eff4f5"/>
    <path id="Path_3940" data-name="Path 3940" d="M0,7.931V.089H3.055A3.83,3.83,0,0,1,4.708.4a2.2,2.2,0,0,1,.988.869,2.455,2.455,0,0,1,.326,1.275,2.4,2.4,0,0,1-.331,1.267,2.156,2.156,0,0,1-.988.846,3.956,3.956,0,0,1-1.653.3H.737V3.945h2.2A2.676,2.676,0,0,0,3.955,3.78,1.16,1.16,0,0,0,4.536,3.3a1.466,1.466,0,0,0,.184-.754,1.51,1.51,0,0,0-.188-.77,1.179,1.179,0,0,0-.582-.5A2.557,2.557,0,0,0,2.917,1.1H1.293V7.931ZM4.231,4.393,6.348,7.931H4.875L2.8,4.393Z" transform="translate(0 0.018)" fill="#eff4f5"/>
    <path id="Path_3941" data-name="Path 3941" d="M6.328,7.931V.089H11.7V1.108H7.621V3.5h3.8V4.512h-3.8v2.4h4.13V7.931Z" transform="translate(1.266 0.018)" fill="#eff4f5"/>
    <path id="Path_3942" data-name="Path 3942" d="M13.1.089l2.385,6.387h.1L17.968.089h1.4L16.281,7.931H14.787L11.7.089Z" transform="translate(2.341 0.018)" fill="#eff4f5"/>
    <path id="Path_3943" data-name="Path 3943" d="M20.418.089V7.931H19.125V.089Z" transform="translate(3.825 0.018)" fill="#eff4f5"/>
    <path id="Path_3944" data-name="Path 3944" d="M21.766,7.931V.089h5.373V1.108h-4.08V3.5h3.8V4.512h-3.8v2.4h4.131V7.931Z" transform="translate(4.353 0.018)" fill="#eff4f5"/>
    <path id="Path_3945" data-name="Path 3945" d="M29.486,7.931,27.109.089h1.36l1.67,6.073h.079L31.955.089H33.3L35.04,6.166h.079L36.785.089h1.364L35.768,7.931h-1.3l-1.8-5.873H32.6l-1.8,5.873Z" transform="translate(5.422 0.018)" fill="#eff4f5"/>
    <path id="Path_3946" data-name="Path 3946" d="M37.281,7.931V.089h5.373V1.108h-4.08V3.5h3.8V4.512h-3.8v2.4H42.7V7.931Z" transform="translate(7.456 0.018)" fill="#eff4f5"/>
    <path id="Path_3947" data-name="Path 3947" d="M45.978,7.931H43.2V.089h2.862A4.628,4.628,0,0,1,48.229.56,3.238,3.238,0,0,1,49.614,1.9,4.247,4.247,0,0,1,50.1,4,4.27,4.27,0,0,1,49.61,6.1,3.284,3.284,0,0,1,48.2,7.46,4.841,4.841,0,0,1,45.978,7.931ZM44.5,6.9h1.41a3.51,3.51,0,0,0,1.628-.337,2.2,2.2,0,0,0,.971-.984A3.512,3.512,0,0,0,48.828,4a3.469,3.469,0,0,0-.322-1.566,2.158,2.158,0,0,0-.95-.976,3.338,3.338,0,0,0-1.569-.333H44.5Z" transform="translate(8.641 0.018)" fill="#eff4f5"/>
    <path id="Path_3948" data-name="Path 3948" d="M60.385,4.028a4.38,4.38,0,0,1-.5,2.159,3.5,3.5,0,0,1-1.377,1.386,4.32,4.32,0,0,1-3.967,0,3.5,3.5,0,0,1-1.373-1.39,4.371,4.371,0,0,1-.5-2.156,4.358,4.358,0,0,1,.5-2.156A3.478,3.478,0,0,1,54.539.486a4.289,4.289,0,0,1,3.967,0,3.471,3.471,0,0,1,1.377,1.386A4.358,4.358,0,0,1,60.385,4.028Zm-1.281,0a3.48,3.48,0,0,0-.339-1.612,2.334,2.334,0,0,0-.921-1,2.728,2.728,0,0,0-2.64,0,2.366,2.366,0,0,0-.921,1,3.513,3.513,0,0,0-.335,1.612,3.538,3.538,0,0,0,.335,1.616,2.4,2.4,0,0,0,.921,1,2.755,2.755,0,0,0,2.64,0,2.364,2.364,0,0,0,.921-1A3.5,3.5,0,0,0,59.1,4.028Z" transform="translate(10.533)" fill="#eff4f5"/>
    <path id="Path_3949" data-name="Path 3949" d="M67.355.089V7.931H66.167L61.81,2.18h-.08V7.931H60.438V.089h1.2l4.361,5.759h.079V.089Z" transform="translate(12.087 0.018)" fill="#eff4f5"/>
  </g>
</svg>
