<svg xmlns="http://www.w3.org/2000/svg" width="59.984" height="60" viewBox="0 0 59.984 60">
  <path id="web-design-agencey_Arolax_is_a_versatile_responsive_RTL_ready_Woo-Commerce_ready_and_easily_customizable_digital_creative_agency_portfolio_WordPress_theme.-8" data-name="web-design-agencey – Arolax is a versatile, responsive, RTL ready, Woo-Commerce ready and easily customizable digital creative agency &amp; portfolio WordPress theme.-8" d="M30.011,0A29.886,29.886,0,0,0,14.957,4.056c-.7.416-1.384.852-2.043,1.307A29.963,29.963,0,0,0,1.868,40.419c.1.29.213.571.329.852q.29.716.61,1.394c.077.174.155.349.242.523A30.011,30.011,0,0,0,59.8,33.564c.087-.687.155-1.384.184-2.081V30.012A30.011,30.011,0,0,0,30.011,0ZM1.936,30.012A28.076,28.076,0,0,1,15.064,6.264a18.52,18.52,0,0,1,7.745,7.125A4.841,4.841,0,0,0,25.384,22.1v.687a18.248,18.248,0,0,1-.745,5.121A49.287,49.287,0,0,0,3.65,39.8,27.8,27.8,0,0,1,1.936,30.012Zm21.947.135A18.394,18.394,0,0,1,7.038,41.174a17.352,17.352,0,0,1-1.888-.1,47.439,47.439,0,0,1,18.733-10.94Zm6.128,27.94A28.076,28.076,0,0,1,5.141,43.013c.629.058,1.259.1,1.936.1a20.331,20.331,0,0,0,19.159-13.6A47.322,47.322,0,0,1,58,32.635,28.075,28.075,0,0,1,30.011,58.087ZM58.087,30.563a49.025,49.025,0,0,0-31.241-3.185,20.549,20.549,0,0,0,.542-4.6v-.968a4.841,4.841,0,0,0-1.646-9.371,4.436,4.436,0,0,0-1.084.135,20.582,20.582,0,0,0-7.542-7.464,28.075,28.075,0,0,1,41.029,24.9,2.038,2.038,0,0,0-.077.542Z" fill="#fff"/>
</svg>
