<svg xmlns="http://www.w3.org/2000/svg" xmlns:xlink="http://www.w3.org/1999/xlink" width="123" height="50" viewBox="0 0 123 50">
  <defs>
    <clipPath id="clip-path">
      <rect id="Rectangle_996" data-name="Rectangle 996" width="123" height="50" fill="#fff"/>
    </clipPath>
  </defs>
  <g id="_66194055ea889347f32d1373_hubspot-partner" data-name="66194055ea889347f32d1373_hubspot-partner" clip-path="url(#clip-path)">
    <g id="Group_179" data-name="Group 179" transform="translate(0 0)">
      <path id="Path_3893" data-name="Path 3893" d="M13.342,18.168H4.3v9.608H0V4.069H4.3V14h9.047V4.069h4.3V27.776h-4.3Z" transform="translate(0 1.76)" fill="#eff4f5"/>
      <path id="Path_3894" data-name="Path 3894" d="M25.283,18.335a3.553,3.553,0,1,1-7.106,0V8.181H14.109V18.335a7.62,7.62,0,1,0,15.24,0V8.181H25.283Z" transform="translate(6.103 3.538)" fill="#eff4f5"/>
      <path id="Path_3895" data-name="Path 3895" d="M44.452,11c0-2.082,1.367-2.742,2.863-2.742a6.081,6.081,0,0,1,3.839,2.048l2.668-3.17a8.383,8.383,0,0,0-6.247-3.071c-4.426,0-7.615,2.609-7.615,6.936,0,8.025,9.73,5.481,9.73,9.974a2.817,2.817,0,0,1-2.862,2.609c-2.409,0-3.191-1.189-4.3-2.444l-2.962,3.1A8.707,8.707,0,0,0,46.6,27.781c4.2,0,7.583-2.642,7.583-6.771C54.182,12.094,44.452,14.868,44.452,11Z" transform="translate(17.116 1.76)" fill="#eff4f5"/>
      <path id="Path_3896" data-name="Path 3896" d="M87.175,23.452c-2.407,0-3.09-1.049-3.09-2.658V13.675h3.741V10.066H84.085V5.309l-4.132,1.87v14.5c0,3.708,2.537,5.578,6.018,5.578a8.277,8.277,0,0,0,1.628-.131l1.009-3.74C88.153,23.419,87.632,23.452,87.175,23.452Z" transform="translate(34.583 2.296)" fill="#eff4f5"/>
      <path id="Path_3897" data-name="Path 3897" d="M35.414,10.035a6.226,6.226,0,0,0-4.786,1.937v-7.8H26.547V18.631c0,5.414,3.882,9.121,8.244,9.121a8.967,8.967,0,0,0,9.1-8.858A8.671,8.671,0,0,0,35.414,10.035Zm-.025,13.576a4.667,4.667,0,1,1,4.629-4.667A4.648,4.648,0,0,1,35.389,23.611Z" transform="translate(11.482 1.803)" fill="#eff4f5"/>
      <path id="Path_3898" data-name="Path 3898" d="M68.9,16.973a8.967,8.967,0,0,0-9.1-8.858c-4.362,0-8.244,3.708-8.244,9.121V31.7h4.081V23.9a6.225,6.225,0,0,0,4.786,1.937A8.671,8.671,0,0,0,68.9,16.973Zm-3.871-.051A4.629,4.629,0,1,1,60.4,12.256,4.647,4.647,0,0,1,65.025,16.922Z" transform="translate(22.299 3.51)" fill="#eff4f5"/>
      <path id="Path_3899" data-name="Path 3899" d="M80.483,11.425V7.292A3.182,3.182,0,0,0,82.3,4.425v-.1a3.174,3.174,0,0,0-3.152-3.178h-.095A3.175,3.175,0,0,0,75.9,4.329v.1a3.182,3.182,0,0,0,1.82,2.868v4.133a8.9,8.9,0,0,0-4.25,1.885L62.219,4.484a3.554,3.554,0,1,0-6.985-.9,3.57,3.57,0,0,0,3.551,3.589,3.5,3.5,0,0,0,1.752-.48l11.071,8.683a9.1,9.1,0,0,0,.137,10.192L68.379,28.96a2.87,2.87,0,0,0-.835-.137,3,3,0,1,0,2.786,2.1l3.331-3.358A8.89,8.89,0,0,0,79.1,29.432a9.062,9.062,0,0,0,1.379-18.006ZM79.1,25.016a4.646,4.646,0,1,1,4.608-4.646A4.628,4.628,0,0,1,79.1,25.016Z" transform="translate(23.891 0)" fill="#ff5c35"/>
    </g>
    <path id="Path_3900" data-name="Path 3900" d="M0,37.323V28.258H3.444a3.684,3.684,0,0,1,1.776.39,2.612,2.612,0,0,1,1.09,1.071,3.391,3.391,0,0,1,0,3.09,2.643,2.643,0,0,1-1.1,1.067,3.785,3.785,0,0,1-1.789.385H1.139V32.91H3.2A2.13,2.13,0,0,0,4.211,32.7a1.35,1.35,0,0,0,.583-.584,1.829,1.829,0,0,0,.193-.854,1.8,1.8,0,0,0-.193-.85,1.3,1.3,0,0,0-.587-.571,2.178,2.178,0,0,0-1.018-.208H1.664v7.693Z" transform="translate(0 12.222)" fill="#eff4f5"/>
    <path id="Path_3901" data-name="Path 3901" d="M5.625,36.668v-6.8H7.2V31h.072a1.7,1.7,0,0,1,.646-.907,1.794,1.794,0,0,1,1.054-.323q.135,0,.3.013a2.043,2.043,0,0,1,.283.031V31.29a1.726,1.726,0,0,0-.327-.062A3.054,3.054,0,0,0,8.8,31.2a1.659,1.659,0,0,0-.8.19,1.4,1.4,0,0,0-.552.518,1.445,1.445,0,0,0-.2.766v4Z" transform="translate(2.433 12.877)" fill="#eff4f5"/>
    <path id="Path_3902" data-name="Path 3902" d="M12.019,36.8a3.37,3.37,0,0,1-1.749-.438,2.991,2.991,0,0,1-1.148-1.226,4.412,4.412,0,0,1,0-3.687,2.984,2.984,0,0,1,1.148-1.231,3.37,3.37,0,0,1,1.749-.438,3.37,3.37,0,0,1,1.749.438,2.957,2.957,0,0,1,1.144,1.231,4.369,4.369,0,0,1,0,3.687,2.963,2.963,0,0,1-1.144,1.226A3.37,3.37,0,0,1,12.019,36.8Zm.009-1.284a1.411,1.411,0,0,0,.915-.3,1.787,1.787,0,0,0,.547-.806,3.541,3.541,0,0,0,0-2.253,1.786,1.786,0,0,0-.547-.81,1.4,1.4,0,0,0-.915-.3,1.436,1.436,0,0,0-.933.3,1.817,1.817,0,0,0-.552.81,3.627,3.627,0,0,0,0,2.253,1.818,1.818,0,0,0,.552.806A1.45,1.45,0,0,0,12.028,35.515Z" transform="translate(3.771 12.88)" fill="#eff4f5"/>
    <path id="Path_3903" data-name="Path 3903" d="M17.947,30.653v1.239H13.875V30.653Zm-3.054,6.8V30.011a2.106,2.106,0,0,1,.287-1.142,1.809,1.809,0,0,1,.78-.682,2.559,2.559,0,0,1,1.085-.226,3.792,3.792,0,0,1,.749.066,4.331,4.331,0,0,1,.484.119l-.323,1.239q-.1-.031-.26-.062a1.592,1.592,0,0,0-.35-.035.813.813,0,0,0-.641.217.907.907,0,0,0-.184.611v7.335Z" transform="translate(6.001 12.094)" fill="#eff4f5"/>
    <path id="Path_3904" data-name="Path 3904" d="M20.564,36.8a3.586,3.586,0,0,1-1.789-.425,2.894,2.894,0,0,1-1.152-1.213,4.433,4.433,0,0,1,0-3.7,3.027,3.027,0,0,1,1.139-1.239,3.226,3.226,0,0,1,1.718-.447,3.52,3.52,0,0,1,1.2.2,2.722,2.722,0,0,1,1,.62,2.9,2.9,0,0,1,.691,1.071,4.25,4.25,0,0,1,.251,1.54V33.7H17.981v-1.08h4.09a1.7,1.7,0,0,0-.2-.819,1.456,1.456,0,0,0-.552-.571,1.567,1.567,0,0,0-.816-.208,1.6,1.6,0,0,0-.875.239,1.657,1.657,0,0,0-.587.62,1.765,1.765,0,0,0-.211.837v.943a2.191,2.191,0,0,0,.22,1.018,1.556,1.556,0,0,0,.614.646,1.858,1.858,0,0,0,.924.221,1.985,1.985,0,0,0,.641-.1,1.426,1.426,0,0,0,.5-.3,1.233,1.233,0,0,0,.318-.482l1.516.168a2.323,2.323,0,0,1-.547,1.036,2.669,2.669,0,0,1-1.022.682A3.965,3.965,0,0,1,20.564,36.8Z" transform="translate(7.448 12.88)" fill="#eff4f5"/>
    <path id="Path_3905" data-name="Path 3905" d="M28.187,31.664l-1.48.159a1.168,1.168,0,0,0-.22-.416,1.089,1.089,0,0,0-.413-.314,1.52,1.52,0,0,0-.637-.119,1.571,1.571,0,0,0-.852.217.636.636,0,0,0-.336.562.585.585,0,0,0,.22.482,1.89,1.89,0,0,0,.753.305l1.175.248a2.983,2.983,0,0,1,1.453.66,1.562,1.562,0,0,1,.484,1.182,1.833,1.833,0,0,1-.381,1.133,2.442,2.442,0,0,1-1.036.761,3.963,3.963,0,0,1-1.525.274,3.571,3.571,0,0,1-2.036-.522,2.1,2.1,0,0,1-.919-1.465l1.583-.151a1.1,1.1,0,0,0,.457.695,1.6,1.6,0,0,0,.91.235,1.641,1.641,0,0,0,.928-.235.684.684,0,0,0,.354-.58.6.6,0,0,0-.229-.482,1.605,1.605,0,0,0-.7-.292l-1.175-.243a2.81,2.81,0,0,1-1.466-.686,1.674,1.674,0,0,1-.471-1.231,1.727,1.727,0,0,1,.345-1.089,2.259,2.259,0,0,1,.982-.717,3.851,3.851,0,0,1,1.457-.257,3.167,3.167,0,0,1,1.906.509A2.137,2.137,0,0,1,28.187,31.664Z" transform="translate(9.705 12.88)" fill="#eff4f5"/>
    <path id="Path_3906" data-name="Path 3906" d="M33.03,31.664l-1.48.159a1.168,1.168,0,0,0-.22-.416,1.089,1.089,0,0,0-.413-.314,1.521,1.521,0,0,0-.637-.119,1.571,1.571,0,0,0-.852.217.636.636,0,0,0-.336.562.585.585,0,0,0,.22.482,1.89,1.89,0,0,0,.753.305l1.175.248a2.984,2.984,0,0,1,1.453.66,1.562,1.562,0,0,1,.484,1.182,1.833,1.833,0,0,1-.381,1.133,2.443,2.443,0,0,1-1.036.761,3.964,3.964,0,0,1-1.525.274,3.571,3.571,0,0,1-2.036-.522,2.1,2.1,0,0,1-.919-1.465l1.583-.151a1.1,1.1,0,0,0,.457.695,1.605,1.605,0,0,0,.91.235,1.642,1.642,0,0,0,.928-.235.684.684,0,0,0,.354-.58.6.6,0,0,0-.229-.482,1.606,1.606,0,0,0-.7-.292l-1.175-.243a2.81,2.81,0,0,1-1.466-.686,1.674,1.674,0,0,1-.471-1.231,1.727,1.727,0,0,1,.345-1.089,2.259,2.259,0,0,1,.982-.717,3.851,3.851,0,0,1,1.457-.257,3.166,3.166,0,0,1,1.906.509A2.137,2.137,0,0,1,33.03,31.664Z" transform="translate(11.8 12.88)" fill="#eff4f5"/>
    <path id="Path_3907" data-name="Path 3907" d="M32.36,37.456v-6.8h1.623v6.8Zm.816-7.764a.954.954,0,0,1-.664-.252.808.808,0,0,1-.278-.615.8.8,0,0,1,.278-.615.944.944,0,0,1,.664-.257.935.935,0,0,1,.664.257.8.8,0,0,1,.278.615.809.809,0,0,1-.278.615A.944.944,0,0,1,33.176,29.692Z" transform="translate(13.943 12.09)" fill="#eff4f5"/>
    <path id="Path_3908" data-name="Path 3908" d="M37.722,36.8a3.37,3.37,0,0,1-1.749-.438,2.992,2.992,0,0,1-1.148-1.226,4.413,4.413,0,0,1,0-3.687,2.985,2.985,0,0,1,1.148-1.231,3.709,3.709,0,0,1,3.5,0,2.955,2.955,0,0,1,1.144,1.231,4.368,4.368,0,0,1,0,3.687,2.961,2.961,0,0,1-1.144,1.226A3.37,3.37,0,0,1,37.722,36.8Zm.009-1.284a1.411,1.411,0,0,0,.915-.3,1.787,1.787,0,0,0,.547-.806,3.541,3.541,0,0,0,0-2.253,1.786,1.786,0,0,0-.547-.81,1.4,1.4,0,0,0-.915-.3,1.436,1.436,0,0,0-.933.3,1.817,1.817,0,0,0-.552.81,3.627,3.627,0,0,0,0,2.253,1.819,1.819,0,0,0,.552.806A1.45,1.45,0,0,0,37.731,35.515Z" transform="translate(14.889 12.88)" fill="#eff4f5"/>
    <path id="Path_3909" data-name="Path 3909" d="M41.608,32.682v3.984H39.984v-6.8h1.552v1.155h.081a1.95,1.95,0,0,1,.758-.908,2.355,2.355,0,0,1,1.3-.336,2.47,2.47,0,0,1,1.242.3,2.036,2.036,0,0,1,.825.872,2.943,2.943,0,0,1,.292,1.385v4.329H44.406V32.585a1.5,1.5,0,0,0-.359-1.067,1.268,1.268,0,0,0-.982-.385,1.525,1.525,0,0,0-.758.186,1.3,1.3,0,0,0-.516.527A1.759,1.759,0,0,0,41.608,32.682Z" transform="translate(17.295 12.88)" fill="#eff4f5"/>
    <path id="Path_3910" data-name="Path 3910" d="M47.446,36.8a2.907,2.907,0,0,1-1.18-.23,1.917,1.917,0,0,1-.825-.69,2,2,0,0,1-.3-1.124,1.894,1.894,0,0,1,.216-.952,1.653,1.653,0,0,1,.587-.6,2.982,2.982,0,0,1,.839-.341,6.91,6.91,0,0,1,.973-.173q.606-.062.983-.111a1.465,1.465,0,0,0,.547-.159.375.375,0,0,0,.175-.341v-.027a1,1,0,0,0-.3-.775A1.24,1.24,0,0,0,48.294,31a1.566,1.566,0,0,0-.946.257,1.279,1.279,0,0,0-.467.606l-1.516-.212a2.378,2.378,0,0,1,.592-1.036,2.577,2.577,0,0,1,1.009-.629,3.909,3.909,0,0,1,1.319-.212,4.347,4.347,0,0,1,.991.115,2.8,2.8,0,0,1,.9.381,1.924,1.924,0,0,1,.655.713,2.3,2.3,0,0,1,.251,1.129v4.55h-1.56v-.934h-.054a1.947,1.947,0,0,1-.417.531,2.009,2.009,0,0,1-.668.394A2.725,2.725,0,0,1,47.446,36.8Zm.421-1.177a1.784,1.784,0,0,0,.848-.19,1.419,1.419,0,0,0,.551-.513,1.3,1.3,0,0,0,.2-.7v-.8a.769.769,0,0,1-.26.115,3.716,3.716,0,0,1-.4.093q-.225.04-.444.071l-.382.053a2.86,2.86,0,0,0-.65.159,1.078,1.078,0,0,0-.453.31.749.749,0,0,0-.166.5.758.758,0,0,0,.327.668A1.438,1.438,0,0,0,47.867,35.625Z" transform="translate(19.525 12.88)" fill="#eff4f5"/>
    <path id="Path_3911" data-name="Path 3911" d="M52.046,28.258v9.065H50.422V28.258Z" transform="translate(21.809 12.222)" fill="#eff4f5"/>
    <path id="Path_3912" data-name="Path 3912" d="M54.961,37.323V28.258H58.4a3.683,3.683,0,0,1,1.776.39,2.615,2.615,0,0,1,1.09,1.071,3.393,3.393,0,0,1,0,3.09,2.645,2.645,0,0,1-1.1,1.067,3.784,3.784,0,0,1-1.789.385H56.1V32.91h2.058a2.128,2.128,0,0,0,1.013-.212,1.35,1.35,0,0,0,.583-.584,1.83,1.83,0,0,0,.193-.854,1.8,1.8,0,0,0-.193-.85,1.3,1.3,0,0,0-.588-.571,2.18,2.18,0,0,0-1.018-.208H56.624v7.693Z" transform="translate(23.773 12.222)" fill="#eff4f5"/>
    <path id="Path_3913" data-name="Path 3913" d="M62.571,36.8a2.907,2.907,0,0,1-1.18-.23,1.917,1.917,0,0,1-.825-.69,2,2,0,0,1-.3-1.124,1.894,1.894,0,0,1,.216-.952,1.654,1.654,0,0,1,.587-.6,2.982,2.982,0,0,1,.839-.341,6.9,6.9,0,0,1,.974-.173q.605-.062.982-.111a1.465,1.465,0,0,0,.547-.159.375.375,0,0,0,.175-.341v-.027a1,1,0,0,0-.3-.775A1.24,1.24,0,0,0,63.419,31a1.566,1.566,0,0,0-.946.257,1.279,1.279,0,0,0-.467.606l-1.515-.212a2.376,2.376,0,0,1,.592-1.036,2.575,2.575,0,0,1,1.009-.629,3.9,3.9,0,0,1,1.318-.212,4.348,4.348,0,0,1,.991.115,2.8,2.8,0,0,1,.9.381,1.924,1.924,0,0,1,.655.713,2.3,2.3,0,0,1,.251,1.129v4.55h-1.56v-.934h-.054a1.956,1.956,0,0,1-.417.531,2.017,2.017,0,0,1-.669.394A2.723,2.723,0,0,1,62.571,36.8Zm.421-1.177a1.784,1.784,0,0,0,.848-.19,1.419,1.419,0,0,0,.551-.513,1.3,1.3,0,0,0,.2-.7v-.8a.769.769,0,0,1-.26.115,3.717,3.717,0,0,1-.4.093q-.225.04-.444.071l-.382.053a2.859,2.859,0,0,0-.65.159,1.078,1.078,0,0,0-.453.31.749.749,0,0,0-.166.5.76.76,0,0,0,.327.668A1.438,1.438,0,0,0,62.992,35.625Z" transform="translate(26.067 12.88)" fill="#eff4f5"/>
    <path id="Path_3914" data-name="Path 3914" d="M65.563,36.668v-6.8h1.574V31h.072a1.7,1.7,0,0,1,.646-.907,1.8,1.8,0,0,1,1.054-.323c.09,0,.19,0,.3.013a2.027,2.027,0,0,1,.282.031V31.29a1.712,1.712,0,0,0-.327-.062,3.045,3.045,0,0,0-.426-.031,1.659,1.659,0,0,0-.8.19,1.4,1.4,0,0,0-.551.518,1.444,1.444,0,0,0-.2.766v4Z" transform="translate(28.358 12.877)" fill="#eff4f5"/>
    <path id="Path_3915" data-name="Path 3915" d="M72.913,30.332v1.239h-3.96V30.332ZM69.93,28.7h1.624v6.383a1.013,1.013,0,0,0,.1.5.531.531,0,0,0,.269.23,1.05,1.05,0,0,0,.368.062,1.609,1.609,0,0,0,.278-.022q.13-.022.2-.04l.273,1.253a3.7,3.7,0,0,1-.373.1,3.081,3.081,0,0,1-.583.062,2.677,2.677,0,0,1-1.1-.182,1.7,1.7,0,0,1-.776-.629,1.852,1.852,0,0,1-.278-1.062Z" transform="translate(29.825 12.415)" fill="#eff4f5"/>
    <path id="Path_3916" data-name="Path 3916" d="M74.287,32.682v3.984H72.664v-6.8h1.551v1.155H74.3a1.945,1.945,0,0,1,.758-.908,2.353,2.353,0,0,1,1.3-.336,2.47,2.47,0,0,1,1.242.3,2.04,2.04,0,0,1,.825.872,2.943,2.943,0,0,1,.292,1.385v4.329H77.086V32.585a1.5,1.5,0,0,0-.359-1.067,1.27,1.27,0,0,0-.983-.385,1.526,1.526,0,0,0-.758.186,1.3,1.3,0,0,0-.516.527A1.759,1.759,0,0,0,74.287,32.682Z" transform="translate(31.43 12.88)" fill="#eff4f5"/>
    <path id="Path_3917" data-name="Path 3917" d="M81.174,36.8a3.586,3.586,0,0,1-1.789-.425,2.891,2.891,0,0,1-1.152-1.213,4.428,4.428,0,0,1,0-3.7,3.025,3.025,0,0,1,1.139-1.239,3.226,3.226,0,0,1,1.718-.447,3.521,3.521,0,0,1,1.2.2,2.719,2.719,0,0,1,1,.62,2.894,2.894,0,0,1,.691,1.071,4.253,4.253,0,0,1,.251,1.54V33.7H78.591v-1.08h4.09a1.7,1.7,0,0,0-.2-.819,1.457,1.457,0,0,0-.551-.571,1.568,1.568,0,0,0-.816-.208,1.6,1.6,0,0,0-.875.239,1.658,1.658,0,0,0-.587.62,1.77,1.77,0,0,0-.211.837v.943a2.2,2.2,0,0,0,.22,1.018,1.559,1.559,0,0,0,.614.646,1.859,1.859,0,0,0,.924.221,1.985,1.985,0,0,0,.641-.1,1.42,1.42,0,0,0,.5-.3,1.234,1.234,0,0,0,.319-.482l1.515.168a2.323,2.323,0,0,1-.547,1.036,2.67,2.67,0,0,1-1.023.682A3.963,3.963,0,0,1,81.174,36.8Z" transform="translate(33.663 12.88)" fill="#eff4f5"/>
    <path id="Path_3918" data-name="Path 3918" d="M83.258,36.668v-6.8h1.574V31H84.9a1.7,1.7,0,0,1,.646-.907,1.792,1.792,0,0,1,1.054-.323c.089,0,.19,0,.3.013a2.049,2.049,0,0,1,.283.031V31.29a1.731,1.731,0,0,0-.327-.062,3.06,3.06,0,0,0-.426-.031,1.657,1.657,0,0,0-.8.19,1.406,1.406,0,0,0-.552.518,1.449,1.449,0,0,0-.2.766v4Z" transform="translate(36.012 12.877)" fill="#eff4f5"/>
  </g>
</svg>
