<svg id="Group_194" data-name="Group 194" xmlns="http://www.w3.org/2000/svg" width="22" height="22" viewBox="0 0 22 22">
  <path id="Path_4043" data-name="Path 4043" d="M20,0H1.994A2,2,0,0,0,0,1.994V20A2,2,0,0,0,1.994,22H20a2,2,0,0,0,2-2V1.994A2,2,0,0,0,20,0ZM8.7,5.6A1.345,1.345,0,1,1,7.351,4.274,1.328,1.328,0,0,1,8.7,5.6Zm.612,2.549h3.38l-.435,1.987A3.837,3.837,0,0,1,15.2,7.974a2.294,2.294,0,0,1,2.272,2.587A5.023,5.023,0,0,1,17.254,12l-.632,2.272a2.625,2.625,0,0,0-.1.612c0,.4.158.593.455.593s.671-.218,1.106-1.423l.87.335c-.514,1.8-1.443,2.549-2.609,2.549a1.8,1.8,0,0,1-2.016-1.917,3.525,3.525,0,0,1,.138-.988L15.12,11.7a2.378,2.378,0,0,0,.1-.711,1.106,1.106,0,0,0-1.185-1.2c-.929,0-1.541.666-1.858,1.951l-1.266,5.074H8.7l.4-1.593a3.145,3.145,0,0,1-2.669,1.731,1.773,1.773,0,0,1-1.977-1.941,4.573,4.573,0,0,1,.118-1l1-4.111H4.012l.474-1.749H8.241l-1.482,5.88a3.741,3.741,0,0,0-.138.9c0,.376.184.485.474.551A2.478,2.478,0,0,0,9.44,13.794l.974-3.9H8.834l.474-1.749Z" fill="#dc395f"/>
</svg>
