<svg id="Group_174" data-name="Group 174" xmlns="http://www.w3.org/2000/svg" xmlns:xlink="http://www.w3.org/1999/xlink" width="331.439" height="60.868" viewBox="0 0 331.439 60.868">
  <defs>
    <clipPath id="clip-path">
      <rect id="Rectangle_2" data-name="Rectangle 2" width="331.439" height="53.632" fill="#fff"/>
    </clipPath>
  </defs>
  <path id="Path_1" data-name="Path 1" d="M469.944,6.531a3.972,3.972,0,1,0-3.972,3.972,3.972,3.972,0,0,0,3.972-3.972m2.558,0A6.531,6.531,0,1,1,465.972,0,6.531,6.531,0,0,1,472.5,6.531" transform="translate(-219.217)" fill="#fff"/>
  <g id="Group_3" data-name="Group 3" transform="translate(0 7.236)" opacity="0.83">
    <g id="Group_2" data-name="Group 2">
      <g id="Group_1" data-name="Group 1" clip-path="url(#clip-path)">
        <rect id="Rectangle_1" data-name="Rectangle 1" width="6.682" height="34.035" transform="translate(243.414 8.9)" fill="#fff"/>
        <path id="Path_2" data-name="Path 2" d="M306.982,13.841v29.2a7.028,7.028,0,0,0,7.027,7.028h3.2v6.682h-3.2A13.709,13.709,0,0,1,300.3,43.043v-29.2Z" transform="translate(-143.285 -13.84)" fill="#fff"/>
        <path id="Path_3" data-name="Path 3" d="M102.913,45.406h21.369a11.086,11.086,0,0,0-21.369,0m21.125,6.681H103.158a11.085,11.085,0,0,0,19.376,2.828l7.58,0a17.733,17.733,0,1,1,.855-2.825Z" transform="translate(-45.726 -21.834)" fill="#fff"/>
        <path id="Path_4" data-name="Path 4" d="M48.057,47.69a17.722,17.722,0,0,1,6.457-13.7,4.338,4.338,0,0,0,1.277-1.782l.624-1.616H49.252l-9.84,25.452L32.011,30.6H24.4L17.075,56.044,7.17,30.6H0L13.344,64.881h8.139L28.22,41.487l6.8,23.393h8.139l4.821-12.473a4.265,4.265,0,0,0,.259-2.148,17.86,17.86,0,0,1-.185-2.569" transform="translate(0 -21.835)" fill="#fff"/>
        <path id="Path_5" data-name="Path 5" d="M258.916,47.938a10.375,10.375,0,1,0-10.375,10.375,10.375,10.375,0,0,0,10.375-10.375m6.682,0a17.057,17.057,0,1,1-17.057-17.057A17.057,17.057,0,0,1,265.6,47.938" transform="translate(-110.451 -21.971)" fill="#fff"/>
        <path id="Path_6" data-name="Path 6" d="M198.914,39.807A17,17,0,0,1,199.9,34.1a1.2,1.2,0,0,0-.009-.859,17.059,17.059,0,0,0-26.164-7.087V13.84h-6.683V39.695a17.056,17.056,0,0,0,32.8,6.562,1.2,1.2,0,0,0,.015-.857,17.012,17.012,0,0,1-.942-5.593M184.1,50.07a10.375,10.375,0,1,1,10.375-10.375A10.374,10.374,0,0,1,184.1,50.07" transform="translate(-79.702 -13.84)" fill="#fff"/>
        <path id="Path_7" data-name="Path 7" d="M358.113,47.938a10.375,10.375,0,1,0-10.375,10.375,10.375,10.375,0,0,0,10.375-10.375m6.682,0a17.057,17.057,0,1,1-17.057-17.057A17.057,17.057,0,0,1,364.8,47.938" transform="translate(-157.781 -21.971)" fill="#fff"/>
        <path id="Path_8" data-name="Path 8" d="M430.718,47.725a17.057,17.057,0,0,0-32.993-6.085,1.045,1.045,0,0,0-.006.709,17.111,17.111,0,0,1,.036,10.861,1.045,1.045,0,0,0,.01.709,17.064,17.064,0,0,0,25.772,7.714,10.381,10.381,0,0,1-9.876,7.187h-10.39V75.5h10.39a17.075,17.075,0,0,0,17.056-17.079l-.116-8.7a17.23,17.23,0,0,0,.116-2m-6.8,1.592a10.384,10.384,0,1,1,.121-1.55l-.142,0Z" transform="translate(-189.74 -21.869)" fill="#fff"/>
        <path id="Path_9" data-name="Path 9" d="M560.673,29.534H550.444V43.256a7.027,7.027,0,0,0,7.027,7.027h3.2v6.682h-3.2a13.709,13.709,0,0,1-13.709-13.709v-29.2h6.682v8.8h10.229Z" transform="translate(-259.45 -13.942)" fill="#fff"/>
        <path id="Path_10" data-name="Path 10" d="M491.1,53.019v.65c0,1.668,2.624,5.005,7.435,5.005,5.167,0,7.435-2.925,7.435-5.005,0-2.539-10.156-3.322-12.1-3.748-4.8-1.049-9.447-3.412-9.447-9.268,0-7.439,7.243-11.687,14.116-11.687,6.5,0,14.117,4.953,14.117,11.687v.65h-6.682v-.65c0-1.59-2.983-5.006-7.435-5.006-4.99,0-7.435,2.836-7.435,5.006,0,3.032,9.856,3.632,12.066,4.088,4.685.966,9.485,3.137,9.485,8.928,0,7.172-6.837,11.687-14.117,11.687-7.051,0-14.116-5.03-14.116-11.687v-.65Z" transform="translate(-231.137 -21.057)" fill="#fff"/>
        <path id="Path_11" data-name="Path 11" d="M586.581,53.019v.65c0,1.668,2.624,5.005,7.435,5.005,5.167,0,7.435-2.925,7.435-5.005,0-2.539-10.156-3.322-12.1-3.748-4.8-1.049-9.447-3.412-9.447-9.268,0-7.439,7.243-11.687,14.116-11.687,6.5,0,14.117,4.953,14.117,11.687v.65H601.45v-.65c0-1.59-2.983-5.006-7.435-5.006-4.99,0-7.435,2.836-7.435,5.006,0,3.032,9.856,3.632,12.066,4.088,4.685.966,9.485,3.137,9.485,8.928,0,7.172-6.837,11.687-14.117,11.687-7.051,0-14.116-5.03-14.116-11.687v-.65Z" transform="translate(-276.693 -21.057)" fill="#fff"/>
      </g>
    </g>
  </g>
  <path id="Path_12" data-name="Path 12" d="M63.293,82.573,65.222,89.2h8.139l2.949-7.629Z" transform="translate(-30.2 -38.923)" fill="#fff"/>
  <path id="Path_13" data-name="Path 13" d="M21.821,85.837l1.935,4.97h8.139l1.691-5.872Z" transform="translate(-10.412 -40.526)" fill="#fff"/>
  <path id="Path_14" data-name="Path 14" d="M598.647,51.039c-2.21-.455-12.066-1.057-12.066-4.088,0-1.813,1.712-4.083,5.18-4.785l-11.109.851a10.372,10.372,0,0,0-.753,3.933c0,5.856,4.644,8.218,9.447,9.268,1.949.426,12.1,1.209,12.1,3.748,0,2.08-2.268,5.006-7.435,5.006-4.81,0-7.435-3.338-7.435-5.006v-.65H579.9v.65c0,6.657,7.065,11.688,14.116,11.688,7.28,0,14.116-4.516,14.116-11.688,0-5.791-4.8-7.962-9.485-8.928" transform="translate(-276.693 -20.12)" fill="#fff"/>
  <path id="Path_15" data-name="Path 15" d="M607.654,40.968c4.23.2,7.039,3.445,7.039,4.988v.65h6.682v-.65a9.614,9.614,0,0,0-2.107-5.877Z" transform="translate(-289.936 -19.123)" fill="#fff"/>
  <path id="Path_16" data-name="Path 16" d="M550.445,58.353V45.695l-6.682.512V58.353a13.709,13.709,0,0,0,13.709,13.709h3.2V65.381h-3.2a7.027,7.027,0,0,1-7.027-7.027" transform="translate(-259.451 -21.803)" fill="#fff"/>
  <path id="Path_17" data-name="Path 17" d="M503.171,54.888c-2.21-.455-12.066-1.057-12.066-4.088a3.144,3.144,0,0,1,.06-.568l-6.74.517c0,.017,0,.034,0,.051,0,5.856,4.644,8.218,9.447,9.268,1.949.426,12.1,1.209,12.1,3.748,0,2.08-2.268,5.006-7.435,5.006-4.811,0-7.435-3.338-7.435-5.006v-.65h-6.682v.65c0,6.657,7.065,11.688,14.116,11.688,7.28,0,14.116-4.516,14.116-11.688,0-5.791-4.8-7.962-9.485-8.928" transform="translate(-231.137 -23.968)" fill="#fff"/>
  <path id="Path_18" data-name="Path 18" d="M524.349,47.667a3.155,3.155,0,0,1,.674,1.651v.65h6.682v-.65a8.853,8.853,0,0,0-.28-2.193Z" transform="translate(-250.187 -22.485)" fill="#fff"/>
  <path id="Path_19" data-name="Path 19" d="M465.542,52.2V74.833h6.682V51.688Z" transform="translate(-222.128 -24.662)" fill="#fff"/>
  <path id="Path_20" data-name="Path 20" d="M429.908,53.147l-7,.536a10.422,10.422,0,0,1,1.168,4.809l-.142,0,.02,1.548a10.375,10.375,0,1,1-20.086-4.9l-5.473.419a17.09,17.09,0,0,1-.6,8.374,1.043,1.043,0,0,0,.01.71,17.063,17.063,0,0,0,25.772,7.714,10.38,10.38,0,0,1-9.876,7.187h-10.39v6.682H413.7a17.076,17.076,0,0,0,17.056-17.079l-.116-8.7a17.105,17.105,0,0,0-.729-7.3" transform="translate(-189.774 -25.359)" fill="#fff"/>
  <path id="Path_21" data-name="Path 21" d="M357.844,58.55a10.375,10.375,0,1,1-20.48,2.346c0-.262.013-.522.032-.779l-6.707.514c0,.088-.007.176-.007.265a17.057,17.057,0,1,0,33.87-2.86Z" transform="translate(-157.781 -27.691)" fill="#fff"/>
  <path id="Path_22" data-name="Path 22" d="M306.981,67.142V64.347l-6.682.512v2.283a13.708,13.708,0,0,0,13.709,13.709h3.2V74.169h-3.2a7.027,7.027,0,0,1-7.027-7.027" transform="translate(-143.284 -30.702)" fill="#fff"/>
  <path id="Path_23" data-name="Path 23" d="M259.157,66.124a10.376,10.376,0,0,1-20.132,1.542l-6.771.519a17.054,17.054,0,0,0,33.672-2.58Z" transform="translate(-110.817 -31.303)" fill="#fff"/>
  <path id="Path_24" data-name="Path 24" d="M200.453,70.8l-5.843.448a10.374,10.374,0,0,1-18.038,1.382l-7.215.553a17.056,17.056,0,0,0,31.589.253,1.2,1.2,0,0,0,.015-.857,17.149,17.149,0,0,1-.508-1.778" transform="translate(-80.807 -33.782)" fill="#fff"/>
  <path id="Path_25" data-name="Path 25" d="M115.534,81.633a11.041,11.041,0,0,1-7.841-3.258l-7.8.6a17.77,17.77,0,0,0,32.16-1.87l-7.58,0a11.068,11.068,0,0,1-8.937,4.527" transform="translate(-47.662 -36.789)" fill="#fff"/>
</svg>
