<svg xmlns="http://www.w3.org/2000/svg" width="62" height="61" viewBox="0 0 62 61">
  <path id="web-design-agencey_Arolax_is_a_versatile_responsive_RTL_ready_Woo-Commerce_ready_and_easily_customizable_digital_creative_agency_portfolio_WordPress_theme.-9" data-name="web-design-agencey – Arolax is a versatile, responsive, RTL ready, Woo-Commerce ready and easily customizable digital creative agency &amp; portfolio WordPress theme.-9" d="M27,8.5v18a6.5,6.5,0,0,1-13,0V8.5a6.5,6.5,0,0,1,13,0Zm-15,0a8.5,8.5,0,0,1,17,0v18a8.5,8.5,0,0,1-17,0ZM41.5,22A5.5,5.5,0,1,0,36,16.5,5.5,5.5,0,0,0,41.5,22Zm0,2A7.5,7.5,0,1,0,34,16.5,7.5,7.5,0,0,0,41.5,24Zm1.363,34.64A31,31,0,0,1,0,30V29H7.5v2H2.017a29,29,0,0,0,57.966,0H33.5V29H62v1A31,31,0,0,1,42.863,58.64Z" fill="#fff" fill-rule="evenodd"/>
</svg>
