<svg xmlns="http://www.w3.org/2000/svg" width="13.368" height="12.751" viewBox="0 0 13.368 12.751">
  <g id="_216411_star_icon_1_" data-name="216411_star_icon (1)" transform="translate(-3.649 -4.034)">
    <g id="Group_177" data-name="Group 177" transform="translate(3.649 4.034)">
      <path id="Path_3891" data-name="Path 3891" d="M8.222,8.135,4.005,8.6a.4.4,0,0,0-.337.275.4.4,0,0,0,.112.417c1.253,1.144,3.137,2.857,3.137,2.857s-.517,2.492-.86,4.154a.4.4,0,0,0,.157.405.4.4,0,0,0,.431.022c1.476-.839,3.687-2.1,3.687-2.1l3.685,2.1a.4.4,0,0,0,.589-.427c-.343-1.663-.857-4.155-.857-4.155L16.886,9.3A.4.4,0,0,0,17,8.877a.4.4,0,0,0-.336-.273c-1.687-.189-4.217-.469-4.217-.469L10.7,4.269a.4.4,0,0,0-.365-.235.4.4,0,0,0-.363.235C9.27,5.816,8.222,8.135,8.222,8.135Z" transform="translate(-3.649 -4.034)" fill="#e3bb1a"/>
    </g>
  </g>
</svg>
