<svg xmlns="http://www.w3.org/2000/svg" width="19.192" height="19.192" viewBox="0 0 19.192 19.192">
  <path id="IncQuery.io_case_study___UX_studio-4" data-name="IncQuery.io case study _ UX studio-4" d="M18.512,13.541a19.171,19.171,0,0,1,.846,5.651,19.171,19.171,0,0,1-5.651-.846,19.028,19.028,0,0,1-3.945-1.723,19.027,19.027,0,0,1-3.945,1.723,19.171,19.171,0,0,1-5.651.846A19.1,19.1,0,0,1,2.735,9.6,19.028,19.028,0,0,1,1.013,5.651,19.171,19.171,0,0,1,.167,0,19.171,19.171,0,0,1,5.818.846,19.027,19.027,0,0,1,9.763,2.569,19.1,19.1,0,0,1,19.358,0a19.171,19.171,0,0,1-.846,5.651A19.028,19.028,0,0,1,16.79,9.6,19.028,19.028,0,0,1,18.512,13.541Z" transform="translate(-0.167)" fill="#035aa6"/>
</svg>
