<svg xmlns="http://www.w3.org/2000/svg" width="19.192" height="19.192" viewBox="0 0 19.192 19.192">
  <path id="IncQuery.io_case_study___UX_studio-5" data-name="IncQuery.io case study _ UX studio-5" d="M20.025,19.192a19.171,19.171,0,0,1-5.651-.846,19.029,19.029,0,0,1-3.945-1.723A19.271,19.271,0,0,1,3.4,9.6,19.028,19.028,0,0,1,1.679,5.651,19.171,19.171,0,0,1,.833,0,19.171,19.171,0,0,1,6.484.846a19.028,19.028,0,0,1,3.945,1.723A19.271,19.271,0,0,1,17.456,9.6a19.028,19.028,0,0,1,1.723,3.945A19.171,19.171,0,0,1,20.025,19.192Z" transform="translate(-0.833)" fill="#035aa6"/>
</svg>
