<svg xmlns="http://www.w3.org/2000/svg" width="60" height="60" viewBox="0 0 60 60">
  <path id="Creative_Agency_Arolax_is_a_versatile_responsive_RTL_ready_Woo-Commerce_ready_and_easily_customizable_digital_creative_agency_portfolio_WordPress_theme.-7" data-name="Creative Agency – Arolax is a versatile, responsive, RTL ready, Woo-Commerce ready and easily customizable digital creative agency &amp; portfolio WordPress theme.-7" d="M40.143,22.984V37.015h8.683A11.5,11.5,0,1,1,37.649,48.507V39.581h-15.3v8.928A11.352,11.352,0,0,1,11.177,60h0a11.5,11.5,0,0,1,0-22.984h8.681V22.985H11.177A11.354,11.354,0,0,1,0,11.493,11.355,11.355,0,0,1,11.177,0,11.352,11.352,0,0,1,22.352,11.493v8.928h15.3V11.492a11.18,11.18,0,1,1,22.351,0A11.353,11.353,0,0,1,48.825,22.984Zm0-11.492v8.929h8.683a8.815,8.815,0,0,0,8.681-8.929,8.685,8.685,0,1,0-17.364,0ZM11.177,20.421H19.86V11.493a8.815,8.815,0,0,0-8.681-8.929,8.816,8.816,0,0,0-8.684,8.929A8.818,8.818,0,0,0,11.177,20.421Zm8.681,28.086V39.579H11.177a8.931,8.931,0,0,0,0,17.855A8.816,8.816,0,0,0,19.859,48.507ZM37.649,22.984h-15.3V37.015h15.3Zm11.176,16.6H40.143v8.926a8.685,8.685,0,1,0,8.683-8.926Z" fill-rule="evenodd"/>
</svg>
