<svg id="Creative_Agency_Arolax_is_a_versatile_responsive_RTL_ready_Woo-Commerce_ready_and_easily_customizable_digital_creative_agency_portfolio_WordPress_theme.-6" data-name="Creative Agency – Arolax is a versatile, responsive, RTL ready, Woo-Commerce ready and easily customizable digital creative agency &amp; portfolio WordPress theme.-6" xmlns="http://www.w3.org/2000/svg" width="60" height="60" viewBox="0 0 60 60">
  <path id="Path_28" data-name="Path 28" d="M38.049,22.226A1.266,1.266,0,0,1,36.794,23.5H18.815a1.278,1.278,0,0,1,0-2.556H36.794A1.266,1.266,0,0,1,38.049,22.226Z"/>
  <path id="Path_29" data-name="Path 29" d="M18.815,39.159a1.278,1.278,0,0,1,0-2.556h7.735a1.278,1.278,0,0,1,0,2.556Z"/>
  <path id="Path_30" data-name="Path 30" d="M51.951,19.6A9.48,9.48,0,0,0,47.434,11.5L30.726,1.335a9.122,9.122,0,0,0-9.5,0L4.517,11.5A9.48,9.48,0,0,0,0,19.6V40.4A9.48,9.48,0,0,0,4.517,48.5L21.224,58.665a9.122,9.122,0,0,0,9.5,0L47.434,48.5A9.48,9.48,0,0,0,51.951,40.4V31.7h6.794a1.278,1.278,0,0,0,0-2.556H51.951Zm-2.927,9.543V19.6a6.486,6.486,0,0,0-3.091-5.547L29.226,3.9a6.241,6.241,0,0,0-6.5,0L6.018,14.057A6.486,6.486,0,0,0,2.927,19.6V40.4a6.486,6.486,0,0,0,3.091,5.547L22.725,56.1a6.241,6.241,0,0,0,6.5,0L45.934,45.943A6.486,6.486,0,0,0,49.024,40.4V31.7H18.815a1.278,1.278,0,0,1,0-2.556Z" fill-rule="evenodd"/>
</svg>
