<svg id="arrow" xmlns="http://www.w3.org/2000/svg" width="12.67" height="10.866" viewBox="0 0 12.67 10.866">
  <g id="Group_7" data-name="Group 7">
    <path id="Path_26" data-name="Path 26" d="M.761,36.385a.905.905,0,0,1,.157-.012H9.857l-.195-.091a1.813,1.813,0,0,1-.512-.363L6.643,33.414a.938.938,0,0,1-.131-1.2.906.906,0,0,1,1.36-.118L12.4,36.628a.907.907,0,0,1,0,1.282h0L7.871,42.443a.907.907,0,0,1-1.36-.091.938.938,0,0,1,.131-1.2l2.5-2.511a1.813,1.813,0,0,1,.453-.331l.272-.122H.968a.938.938,0,0,1-.956-.762A.907.907,0,0,1,.761,36.385Z" transform="translate(0 -31.842)" fill="#fff"/>
  </g>
</svg>
