<svg id="Group_195" data-name="Group 195" xmlns="http://www.w3.org/2000/svg" width="22" height="21.454" viewBox="0 0 22 21.454">
  <path id="Path_4044" data-name="Path 4044" d="M3.9,0H18.1A3.893,3.893,0,0,1,22,3.9V17.554a3.893,3.893,0,0,1-3.9,3.9H3.9a3.893,3.893,0,0,1-3.9-3.9V3.9A3.893,3.893,0,0,1,3.9,0Z" fill="#470137"/>
  <g id="Group_192" data-name="Group 192" transform="translate(3.205 4.701)">
    <path id="Path_4045" data-name="Path 4045" d="M43.324,60.138l-2.75,4.538,2.933,4.813a.158.158,0,0,1,.018.11c-.009.037-.046.009-.1.018h-2.1c-.147,0-.247-.009-.312-.1-.192-.385-.394-.761-.587-1.146s-.4-.761-.623-1.155-.44-.788-.66-1.192h-.018c-.193.394-.4.788-.614,1.183s-.422.788-.623,1.173-.422.779-.632,1.155c-.037.092-.11.1-.211.1H35.029c-.037,0-.064.018-.064-.027a.127.127,0,0,1,.018-.1l2.851-4.675-2.778-4.7c-.028-.037-.037-.073-.018-.092A.106.106,0,0,1,35.129,60H37.21a.541.541,0,0,1,.128.018.26.26,0,0,1,.092.083c.174.394.376.788.587,1.182s.431.779.66,1.164.422.77.614,1.164h.018c.193-.4.394-.8.6-1.183s.412-.77.623-1.155.413-.779.614-1.155a.156.156,0,0,1,.055-.092.175.175,0,0,1,.119-.018h1.934a.084.084,0,0,1,.1.064c.009.009-.009.046-.028.064Z" transform="translate(-34.961 -59.201)" fill="#ff61f6"/>
    <path id="Path_4046" data-name="Path 4046" d="M134.156,61.892a4.557,4.557,0,0,1-1.971-.413,3.2,3.2,0,0,1-1.384-1.247,3.966,3.966,0,0,1-.5-2.09,3.765,3.765,0,0,1,.5-1.934,3.807,3.807,0,0,1,1.457-1.421,4.689,4.689,0,0,1,2.319-.532,1.637,1.637,0,0,1,.192.009c.083.009.174.009.284.018v-2.9c0-.064.027-.1.092-.1h1.861a.082.082,0,0,1,.092.064V60.1c0,.165.009.348.018.55s.028.376.037.532a.149.149,0,0,1-.092.147,7,7,0,0,1-1.494.44,8.086,8.086,0,0,1-1.411.123Zm.9-1.833V56.025a2.345,2.345,0,0,0-.247-.046c-.1-.009-.2-.018-.3-.018a2.26,2.26,0,0,0-1.036.238,2.055,2.055,0,0,0-.779.678,2.032,2.032,0,0,0-.3,1.164,2.555,2.555,0,0,0,.156.944,1.792,1.792,0,0,0,.413.651,1.584,1.584,0,0,0,.623.367,2.4,2.4,0,0,0,.761.119c.137,0,.266-.009.385-.018a.8.8,0,0,0,.322-.046Z" transform="translate(-121.557 -51.284)" fill="#ff61f6"/>
  </g>
</svg>
